#define cal_width 10
#define cal_height 20
static unsigned char cal_bits[] = {
   0x00, 0x00, 0x00, 0x00, 0x00, 0x00, 0x00, 0x00, 0x00, 0x00, 0xfe, 0x00,
   0xfe, 0x00, 0xfe, 0x00, 0x82, 0x00, 0xaa, 0x00, 0x82, 0x00, 0xaa, 0x00,
   0x82, 0x00, 0xfe, 0x00, 0x00, 0x00, 0x00, 0x00, 0x00, 0x00, 0x00, 0x00,
   0x00, 0x00, 0x00, 0x00};
