#define delta2_width 10
#define delta2_height 20
static unsigned char delta2_bits[] = {
   0x00, 0x00, 0x00, 0x00, 0x00, 0x00, 0x00, 0x00, 0x00, 0x00, 0x30, 0x00,
   0x30, 0x00, 0x68, 0x00, 0x68, 0x00, 0xc4, 0x00, 0xc4, 0x00, 0x82, 0x01,
   0x82, 0x01, 0xff, 0x03, 0x00, 0x00, 0x00, 0x00, 0x00, 0x00, 0x00, 0x00,
   0x00, 0x00, 0x00, 0x00};
