#define dn_width 10
#define dn_height 20
static unsigned char dn_bits[] = {
   0x00, 0x00, 0x00, 0x00, 0x00, 0x00, 0x00, 0x00, 0x00, 0x00, 0x38, 0x00,
   0x38, 0x00, 0x38, 0x00, 0x38, 0x00, 0x38, 0x00, 0xfe, 0x00, 0x7c, 0x00,
   0x38, 0x00, 0xfe, 0x00, 0x00, 0x00, 0x00, 0x00, 0x00, 0x00, 0x00, 0x00,
   0x00, 0x00, 0x00, 0x00};
