#define snap_width 10
#define snap_height 20
static unsigned char snap_bits[] = {
   0x00, 0x00, 0x00, 0x00, 0x00, 0x00, 0x00, 0x00, 0x00, 0x00, 0x1c, 0x00,
   0x7e, 0x00, 0xbe, 0x00, 0xbe, 0x00, 0xbe, 0x00, 0xbe, 0x00, 0xbe, 0x00,
   0xbe, 0x00, 0xfe, 0x00, 0x00, 0x00, 0x00, 0x00, 0x00, 0x00, 0x00, 0x00,
   0x00, 0x00, 0x00, 0x00};
