#define up_width 10
#define up_height 20
static unsigned char up_bits[] = {
   0x00, 0x00, 0x00, 0x00, 0x00, 0x00, 0x00, 0x00, 0x00, 0x00, 0xfe, 0x00,
   0x38, 0x00, 0x6c, 0x00, 0xee, 0x00, 0x28, 0x00, 0x28, 0x00, 0x28, 0x00,
   0x28, 0x00, 0x38, 0x00, 0x00, 0x00, 0x00, 0x00, 0x00, 0x00, 0x00, 0x00,
   0x00, 0x00, 0x00, 0x00};
