#define vol_width 10
#define vol_height 20
static unsigned char vol_bits[] = {
   0x00, 0x00, 0x00, 0x00, 0x00, 0x00, 0x00, 0x00, 0x00, 0x00, 0x20, 0x01,
   0xb0, 0x00, 0x3c, 0x00, 0x3f, 0x00, 0xbf, 0x01, 0x3f, 0x00, 0x3c, 0x00,
   0xb0, 0x00, 0x20, 0x01, 0x00, 0x00, 0x00, 0x00, 0x00, 0x00, 0x00, 0x00,
   0x00, 0x00, 0x00, 0x00};
