#define xbt_width 10
#define xbt_height 20
static unsigned char xbt_bits[] = {
   0x00, 0x00, 0x00, 0x00, 0x00, 0x00, 0x00, 0x00, 0x00, 0x00, 0x7e, 0x00,
   0x82, 0x00, 0x82, 0x00, 0x82, 0x00, 0x7e, 0x00, 0x82, 0x00, 0x8f, 0x00,
   0x82, 0x00, 0x7e, 0x00, 0x00, 0x00, 0x00, 0x00, 0x00, 0x00, 0x00, 0x00,
   0x00, 0x00, 0x00, 0x00};
